<?xml version="1.0" encoding="UTF-8"?>
<svg id="Warstwa_1" data-name="Warstwa 1" xmlns="http://www.w3.org/2000/svg" viewBox="0 0 52.3 314.85">
  <defs>
    <style>
      .cls-1 {
        fill: none;
        stroke: #fff;
        stroke-miterlimit: 10;
      }
    </style>
  </defs>
  <path class="cls-1" d="M51.08.5v9.34H9.02s0,25.21,0,25.21l-7.74-1.12V.5h49.8Z"/>
  <path class="cls-1" d="M26.39,85.76c-13.8,0-25.83-8.1-25.83-24.11s11.35-23.48,25.62-23.48c14.41,0,25.62,8.8,25.62,24.13,0,14.38-10.32,23.45-25.41,23.45ZM26.39,47.86c-10.08,0-18.15,4.69-18.15,14.16,0,10.26,8.54,14.06,18.02,14.06,9.87,0,17.84-4.32,17.84-14.17s-7.7-14.06-17.71-14.06Z"/>
  <path class="cls-1" d="M13.96,103.14l-12.68-4.39v-9.21s49.8,17.19,49.8,17.19v11.68S1.28,136.35,1.28,136.35v-9.85s12.68-4.58,12.68-4.58v-18.77ZM21.7,119.81c11.39-3.95,18.19-6.33,22.43-7.49v-.07c-4.67-1.22-12.69-3.86-22.43-7.03v14.59Z"/>
  <path class="cls-1" d="M51.08,143.2v19.08c0,14.33-9.55,23.81-24.32,23.81S1.28,176.88,1.28,161.91v-18.7h49.8ZM8.92,152.54v8.89c0,10.29,7.54,14.98,17.78,14.98,8.72,0,16.74-4.34,16.74-14.93v-8.94s-34.52,0-34.52,0Z"/>
  <path class="cls-1" d="M51.08,205.18H1.28v-9.34h49.8v9.34Z"/>
  <path class="cls-1" d="M1.28,217.65h49.8v11.77c-11.34,6.54-33.08,19.42-38.51,21.88v.12c5.61-.53,13.98-.51,22.14-.51h16.36v8.55H1.28v-11.13c10.1-5.77,34.46-19.7,40.16-22.39v-.12c-4.81.36-14.42.44-23.37.44H1.28v-8.6Z"/>
  <path class="cls-1" d="M1.28,314.04v-6.92c1.33-.39,3.22-.63,5.54-.76-3.66-2.56-6.32-7.22-6.32-14.86,0-14.42,10.92-22.34,25.09-22.34,14.95,0,26.2,8.53,26.2,23.99,0,12.39-6.9,19.84-15.53,21.12v-9.34c4.1-1.25,8.1-4.35,8.1-11.92,0-10.68-8.78-14.17-18.35-14.17-9.15,0-17.97,3.78-17.97,14.12s6.74,11.94,12.55,11.94h.48s0-11.98,0-11.98h7.74v21.13H1.28Z"/>
</svg>