<svg width="30" height="30" viewBox="0 0 30 30" fill="none" xmlns="http://www.w3.org/2000/svg">
<path d="M10 15C14.1362 15 17.5 11.6362 17.5 7.5C17.5 3.36375 14.1362 0 10 0C5.86375 0 2.5 3.36375 2.5 7.5C2.5 11.6362 5.86375 15 10 15ZM10 2.5C12.7575 2.5 15 4.7425 15 7.5C15 10.2575 12.7575 12.5 10 12.5C7.2425 12.5 5 10.2575 5 7.5C5 4.7425 7.2425 2.5 10 2.5ZM12.4875 19.0138C12.39 19.6975 11.7587 20.1788 11.0738 20.0763C10.7188 20.025 10.3575 20 10 20C5.86375 20 2.5 23.3638 2.5 27.5V28.75C2.5 29.44 1.94125 30 1.25 30C0.55875 30 0 29.44 0 28.75V27.5C0 21.9862 4.48625 17.5 10 17.5C10.475 17.5 10.955 17.5338 11.4262 17.6012C12.11 17.6987 12.585 18.3312 12.4888 19.015L12.4875 19.0138ZM25 17.5H20V16.25C20 14.8713 21.1213 13.75 22.5 13.75C23.21 13.75 23.8888 14.0538 24.365 14.5837C24.825 15.0975 25.615 15.14 26.13 14.68C26.6437 14.2188 26.6862 13.4288 26.225 12.915C25.2762 11.8562 23.9188 11.25 22.5 11.25C19.7425 11.25 17.5 13.4925 17.5 16.25V18.1712C16.0063 19.0375 15 20.6537 15 22.5V25C15 27.7575 17.2425 30 20 30H25C27.7575 30 30 27.7575 30 25V22.5C30 19.7425 27.7575 17.5 25 17.5ZM27.5 25C27.5 26.3787 26.3787 27.5 25 27.5H20C18.6213 27.5 17.5 26.3787 17.5 25V22.5C17.5 21.1213 18.6213 20 20 20H25C26.3787 20 27.5 21.1213 27.5 22.5V25ZM24.375 23.75C24.375 24.785 23.535 25.625 22.5 25.625C21.465 25.625 20.625 24.785 20.625 23.75C20.625 22.715 21.465 21.875 22.5 21.875C23.535 21.875 24.375 22.715 24.375 23.75Z" fill="white"/>
</svg>
