<svg width="20" height="20" viewBox="0 0 20 20" fill="none" xmlns="http://www.w3.org/2000/svg">
<path d="M15.8333 0C13.5333 0 11.6667 1.86667 11.6667 4.16667H4.16667C2.79167 4.16667 1.66667 5.29167 1.66667 6.66667V7.5C1.66667 7.95833 2.04167 8.33333 2.5 8.33333C2.95833 8.33333 3.33333 7.95833 3.33333 7.5V6.66667C3.33333 6.20833 3.70833 5.83333 4.16667 5.83333H5V7.5C5 7.95833 5.375 8.33333 5.83333 8.33333C6.29167 8.33333 6.66667 7.95833 6.66667 7.5V5.83333H11.6667C11.6667 8.13333 13.5333 10 15.8333 10C18.1333 10 20 8.13333 20 5.83333V4.16667C20 1.86667 18.1333 0 15.8333 0ZM18.3333 5.83333C18.3333 7.20833 17.2083 8.33333 15.8333 8.33333C14.4583 8.33333 13.3333 7.20833 13.3333 5.83333V4.16667C13.3333 2.79167 14.4583 1.66667 15.8333 1.66667C17.2083 1.66667 18.3333 2.79167 18.3333 4.16667V5.83333ZM17.5 11.6667C17.0417 11.6667 16.6667 12.0417 16.6667 12.5V13.3333C16.6667 13.7917 16.2917 14.1667 15.8333 14.1667H15V12.5C15 12.0417 14.625 11.6667 14.1667 11.6667C13.7083 11.6667 13.3333 12.0417 13.3333 12.5V14.1667H8.33333C8.33333 11.8667 6.46667 10 4.16667 10C1.86667 10 0 11.8667 0 14.1667V15.8333C0 18.1333 1.86667 20 4.16667 20C6.46667 20 8.33333 18.1333 8.33333 15.8333H15.8333C17.2083 15.8333 18.3333 14.7083 18.3333 13.3333V12.5C18.3333 12.0417 17.9583 11.6667 17.5 11.6667ZM6.66667 15.8333C6.66667 17.2083 5.54167 18.3333 4.16667 18.3333C2.79167 18.3333 1.66667 17.2083 1.66667 15.8333V14.1667C1.66667 12.7917 2.79167 11.6667 4.16667 11.6667C5.54167 11.6667 6.66667 12.7917 6.66667 14.1667V15.8333Z" fill="black"/>
</svg>
