<svg width="21" height="21" viewBox="0 0 21 21" fill="none" xmlns="http://www.w3.org/2000/svg">
<path d="M19.6667 6.33339H15.6592L16.3258 1.44595C16.3406 1.3375 16.3339 1.2272 16.306 1.12136C16.2782 1.01551 16.2297 0.916185 16.1635 0.829054C16.0973 0.741923 16.0145 0.668691 15.92 0.613541C15.8254 0.55839 15.721 0.522401 15.6125 0.507627C15.5041 0.492854 15.3938 0.499586 15.2879 0.527438C15.1821 0.555291 15.0827 0.603719 14.9956 0.669957C14.9085 0.736195 14.8352 0.818947 14.7801 0.913486C14.7249 1.00803 14.6889 1.1125 14.6742 1.22095L13.9775 6.33339H8.15917L8.82583 1.44595C8.84061 1.3375 8.83387 1.2272 8.80602 1.12136C8.77817 1.01551 8.72974 0.916185 8.6635 0.829054C8.59726 0.741923 8.51451 0.668691 8.41997 0.613541C8.32543 0.55839 8.22095 0.522401 8.1125 0.507627C8.00405 0.492854 7.89375 0.499586 7.7879 0.527438C7.68205 0.555291 7.58273 0.603719 7.4956 0.669957C7.40846 0.736195 7.33523 0.818947 7.28008 0.913486C7.22493 1.00803 7.18894 1.1125 7.17417 1.22095L6.4775 6.33339H2.16667C1.94565 6.33339 1.73369 6.42118 1.57741 6.57746C1.42113 6.73374 1.33333 6.9457 1.33333 7.16671C1.33333 7.38772 1.42113 7.59968 1.57741 7.75596C1.73369 7.91223 1.94565 8.00003 2.16667 8.00003H6.25L5.56833 13H1.33333C1.11232 13 0.900358 13.0878 0.744078 13.244C0.587797 13.4003 0.5 13.6123 0.5 13.8333C0.5 14.0543 0.587797 14.2663 0.744078 14.4225C0.900358 14.5788 1.11232 14.6666 1.33333 14.6666H5.34083L4.67417 19.554C4.64433 19.7731 4.70272 19.995 4.8365 20.1709C4.97027 20.3469 5.16848 20.4625 5.3875 20.4924C5.60652 20.5222 5.82843 20.4638 6.0044 20.33C6.18037 20.1963 6.296 19.9981 6.32583 19.779L7.0225 14.6666H12.8408L12.1742 19.554C12.1443 19.7731 12.2027 19.995 12.3365 20.1709C12.4703 20.3469 12.6685 20.4625 12.8875 20.4924C13.1065 20.5222 13.3284 20.4638 13.5044 20.33C13.6804 20.1963 13.796 19.9981 13.8258 19.779L14.5225 14.6666H18.8333C19.0543 14.6666 19.2663 14.5788 19.4226 14.4225C19.5789 14.2663 19.6667 14.0543 19.6667 13.8333C19.6667 13.6123 19.5789 13.4003 19.4226 13.244C19.2663 13.0878 19.0543 13 18.8333 13H14.75L15.4317 8.00003H19.6667C19.8877 8.00003 20.0996 7.91223 20.2559 7.75596C20.4122 7.59968 20.5 7.38772 20.5 7.16671C20.5 6.9457 20.4122 6.73374 20.2559 6.57746C20.0996 6.42118 19.8877 6.33339 19.6667 6.33339ZM13.0683 13H7.25L7.93167 8.00003H13.75L13.0683 13Z" fill="white"/>
</svg>
