<svg width="31" height="30" viewBox="0 0 31 30" fill="none" xmlns="http://www.w3.org/2000/svg">
<path d="M17.375 21.875C17.375 22.91 16.535 23.75 15.5 23.75C14.465 23.75 13.625 22.91 13.625 21.875C13.625 20.84 14.465 20 15.5 20C16.535 20 17.375 20.84 17.375 21.875ZM15.5 18.125C16.1912 18.125 16.75 17.5662 16.75 16.875V7.5C16.75 6.80875 16.1912 6.25 15.5 6.25C14.8088 6.25 14.25 6.80875 14.25 7.5V16.875C14.25 17.5662 14.8088 18.125 15.5 18.125ZM30.5 6.25V23.75C30.5 27.1963 27.6963 30 24.25 30H6.75C3.30375 30 0.5 27.1963 0.5 23.75V6.25C0.5 2.80375 3.30375 0 6.75 0H24.25C27.6963 0 30.5 2.80375 30.5 6.25ZM28 6.25C28 4.1825 26.3175 2.5 24.25 2.5H6.75C4.6825 2.5 3 4.1825 3 6.25V23.75C3 25.8175 4.6825 27.5 6.75 27.5H24.25C26.3175 27.5 28 25.8175 28 23.75V6.25Z" fill="black"/>
</svg>
