<?xml version="1.0" encoding="utf-8"?>
<!-- Generator: Adobe Illustrator 28.1.0, SVG Export Plug-In . SVG Version: 6.00 Build 0)  -->
<svg version="1.1" id="Warstwa_1" xmlns="http://www.w3.org/2000/svg" xmlns:xlink="http://www.w3.org/1999/xlink" x="0px" y="0px"
	 viewBox="0 0 31 30" style="enable-background:new 0 0 31 30;" xml:space="preserve">
<style type="text/css">
	.st0{fill:#FF0000;}
</style>
<path class="st0" d="M17.4,21.9c0,1-0.8,1.9-1.9,1.9s-1.9-0.8-1.9-1.9s0.8-1.9,1.9-1.9S17.4,20.8,17.4,21.9z M15.5,18.1
	c0.7,0,1.2-0.6,1.2-1.2V7.5c0-0.7-0.6-1.2-1.2-1.2s-1.2,0.6-1.2,1.2v9.4C14.2,17.6,14.8,18.1,15.5,18.1z M30.5,6.2v17.5
	c0,3.4-2.8,6.2-6.2,6.2H6.8c-3.4,0-6.2-2.8-6.2-6.2V6.2C0.5,2.8,3.3,0,6.8,0h17.5C27.7,0,30.5,2.8,30.5,6.2z M28,6.2
	c0-2.1-1.7-3.8-3.8-3.8H6.8C4.7,2.5,3,4.2,3,6.2v17.5c0,2.1,1.7,3.8,3.8,3.8h17.5c2.1,0,3.8-1.7,3.8-3.8V6.2z"/>
</svg>
