<?xml version="1.0" encoding="utf-8"?>
<!-- Generator: Adobe Illustrator 28.1.0, SVG Export Plug-In . SVG Version: 6.00 Build 0)  -->
<svg version="1.1" id="Layer_1" xmlns="http://www.w3.org/2000/svg" xmlns:xlink="http://www.w3.org/1999/xlink" x="0px" y="0px"
	 viewBox="0 0 24 24" style="enable-background:new 0 0 24 24;" xml:space="preserve">
<style type="text/css">
	.st0{fill:#FFFFFF;}
</style>
<path class="st0" d="M23.2,16.1l-3.7-3.7c-0.7-0.7-1.6-1-2.5-0.9l-3.1,0.4c-1.1,0.1-2,1.1-2.1,2.2l-0.2,3c-0.1,0.9,0.2,1.7,0.9,2.4
	l3.7,3.7c0.5,0.5,1.2,0.8,2,0.8c0,0,0,0,0,0c0.8,0,1.5-0.3,2-0.8l3-3C24.3,19,24.3,17.2,23.2,16.1z M21.8,18.7l-3,3
	c-0.2,0.2-0.4,0.2-0.6,0.2h0c-0.2,0-0.4-0.1-0.6-0.2L13.9,18c-0.2-0.2-0.3-0.5-0.3-0.8l0.2-3c0-0.2,0.1-0.3,0.3-0.3
	c0,0,3.2-0.4,3.2-0.4c0.3,0,0.5,0.1,0.7,0.3l3.7,3.7C22.1,17.8,22.1,18.4,21.8,18.7L21.8,18.7z M18,16.5c0,0.8-0.7,1.5-1.5,1.5
	S15,17.3,15,16.5s0.7-1.5,1.5-1.5C17.3,15,18,15.7,18,16.5z M8,12c3.3,0,6-2.7,6-6s-2.7-6-6-6S2,2.7,2,6S4.7,12,8,12z M8,2
	c2.2,0,4,1.8,4,4s-1.8,4-4,4S4,8.2,4,6S5.8,2,8,2z M10,15c0,0.6-0.4,1-1,1c-3.9,0-7,3.1-7,7c0,0.6-0.4,1-1,1s-1-0.4-1-1c0-5,4-9,9-9
	C9.6,14,10,14.4,10,15z"/>
</svg>
