<?xml version="1.0" encoding="utf-8"?>
<!-- Generator: Adobe Illustrator 24.1.2, SVG Export Plug-In . SVG Version: 6.00 Build 0)  -->
<svg version="1.1" id="arrow-circle-down" xmlns="http://www.w3.org/2000/svg" xmlns:xlink="http://www.w3.org/1999/xlink" x="0px"
	 y="0px" viewBox="0 0 512 512" style="enable-background:new 0 0 512 512;" xml:space="preserve">
<style type="text/css">
	.st0{fill:#FFFFFF;}
</style>
<path class="st0" d="M0,106.7v298.7C0.1,464.2,47.8,511.9,106.7,512h298.7c58.9-0.1,106.6-47.8,106.7-106.7V106.7
	C511.9,47.8,464.2,0.1,405.3,0H106.7C47.8,0.1,0.1,47.8,0,106.7z M405.3,42.7c35.3,0,64,28.7,64,64v298.7c0,35.3-28.7,64-64,64
	H106.7c-35.3,0-64-28.7-64-64V106.7c0-35.3,28.7-64,64-64H405.3z M279.9,134.3c-8.3,8.3-8.3,21.8,0,30.2l70.2,70.3L128,234.8
	c-11.8,0-21.3,9.6-21.3,21.3c0,11.8,9.6,21.3,21.3,21.3l222.2-0.1l-70.3,70.3c-8.7,8-9.3,21.5-1.3,30.1c8,8.7,21.5,9.3,30.1,1.3
	c0.3-0.3,0.6-0.5,0.8-0.8l0.5-0.5l76.5-76.5c25-25,25-65.5,0-90.5c0,0,0,0,0,0l0,0l-76.5-76.5C301.7,125.9,288.2,125.9,279.9,134.3z
	"/>
</svg>
