<?xml version="1.0" encoding="utf-8"?>
<!-- Generator: Adobe Illustrator 24.1.2, SVG Export Plug-In . SVG Version: 6.00 Build 0)  -->
<svg version="1.1" id="arrow-circle-down" xmlns="http://www.w3.org/2000/svg" xmlns:xlink="http://www.w3.org/1999/xlink" x="0px"
	 y="0px" viewBox="0 0 512 512" style="enable-background:new 0 0 512 512;" xml:space="preserve">
<style type="text/css">
	.st0{fill:#FFFFFF;}
</style>
<path class="st0" d="M512,405.3V106.7C511.9,47.8,464.2,0.1,405.3,0H106.7C47.8,0.1,0.1,47.8,0,106.7v298.7
	C0.1,464.2,47.8,511.9,106.7,512h298.7C464.2,511.9,511.9,464.2,512,405.3z M106.7,469.3c-35.3,0-64-28.7-64-64V106.7
	c0-35.3,28.7-64,64-64h298.7c35.3,0,64,28.7,64,64v298.7c0,35.3-28.7,64-64,64H106.7z M232.1,377.7c8.3-8.3,8.3-21.8,0-30.2
	l-70.2-70.3l222.1-0.1c11.8,0,21.3-9.6,21.3-21.3c0-11.8-9.6-21.3-21.3-21.3l-222.2,0.1l70.3-70.3c8.7-8,9.3-21.5,1.3-30.1
	c-8-8.7-21.5-9.3-30.1-1.3c-0.3,0.3-0.6,0.5-0.8,0.8l-0.5,0.5l-76.5,76.5c-25,25-25,65.5,0,90.5c0,0,0,0,0,0l0,0l76.5,76.5
	C210.3,386.1,223.8,386.1,232.1,377.7z"/>
</svg>
