<?xml version="1.0" encoding="utf-8"?>
<!-- Generator: Adobe Illustrator 24.1.2, SVG Export Plug-In . SVG Version: 6.00 Build 0)  -->
<svg version="1.1" id="Layer_1" xmlns="http://www.w3.org/2000/svg" xmlns:xlink="http://www.w3.org/1999/xlink" x="0px" y="0px"
	 viewBox="0 0 4215 121" style="enable-background:new 0 0 4215 121;" xml:space="preserve">
<style type="text/css">
	.st0{fill:none;stroke:#FFFFFF;stroke-width:2;stroke-miterlimit:10;}
</style>
<g>
	<path class="st0" d="M11.9,79.3c5,3.1,12.3,5.6,20,5.6c11.4,0,18-6,18-14.7c0-8.1-4.6-12.7-16.3-17.2c-14.1-5-22.8-12.3-22.8-24.4
		C10.9,15.2,22,5.2,38.8,5.2c8.8,0,15.2,2,19.1,4.2l-3.1,9.1c-2.8-1.5-8.6-4.1-16.4-4.1c-11.8,0-16.3,7-16.3,12.9
		c0,8.1,5.2,12,17.2,16.6c14.6,5.6,22,12.7,22,25.3c0,13.3-9.9,24.8-30.2,24.8c-8.3,0-17.4-2.4-22-5.5L11.9,79.3z"/>
	<path class="st0" d="M83.2,63.9c0.3,15.2,10,21.5,21.2,21.5c8.1,0,12.9-1.4,17.2-3.2l1.9,8.1c-4,1.8-10.8,3.8-20.6,3.8
		c-19.1,0-30.5-12.5-30.5-31.2c0-18.7,11-33.4,29.1-33.4c20.2,0,25.6,17.8,25.6,29.2c0,2.3-0.3,4.1-0.4,5.2H83.2z M116.2,55.9
		c0.1-7.2-2.9-18.3-15.6-18.3c-11.4,0-16.4,10.5-17.3,18.3H116.2z"/>
	<path class="st0" d="M185.2,90.6c-2.9,1.5-9.5,3.6-17.8,3.6c-18.7,0-30.8-12.7-30.8-31.6c0-19.1,13.1-32.9,33.3-32.9
		c6.7,0,12.5,1.7,15.6,3.2l-2.6,8.7c-2.7-1.5-6.9-2.9-13.1-2.9C155.7,38.6,148,49.1,148,62c0,14.3,9.2,23.2,21.5,23.2
		c6.4,0,10.6-1.7,13.8-3.1L185.2,90.6z"/>
	<path class="st0" d="M250.3,76c0,6.4,0.1,12,0.5,16.9h-10l-0.6-10.1h-0.3c-2.9,5-9.5,11.5-20.5,11.5c-9.7,0-21.4-5.4-21.4-27.1
		V30.9h11.3v34.3c0,11.8,3.6,19.7,13.8,19.7c7.6,0,12.8-5.2,14.8-10.2c0.6-1.7,1-3.7,1-5.8v-38h11.3V76z"/>
	<path class="st0" d="M268.9,50.3c0-7.3-0.1-13.6-0.5-19.3h9.9l0.4,12.2h0.5c2.8-8.3,9.6-13.6,17.2-13.6c1.3,0,2.2,0.1,3.2,0.4v10.6
		c-1.2-0.3-2.3-0.4-3.8-0.4c-7.9,0-13.6,6-15.1,14.5c-0.3,1.5-0.5,3.3-0.5,5.2v33h-11.1V50.3z"/>
	<path class="st0" d="M315.8,63.9c0.3,15.2,10,21.5,21.2,21.5c8.1,0,12.9-1.4,17.2-3.2l1.9,8.1c-4,1.8-10.8,3.8-20.6,3.8
		c-19.1,0-30.5-12.5-30.5-31.2c0-18.7,11-33.4,29.1-33.4c20.2,0,25.6,17.8,25.6,29.2c0,2.3-0.3,4.1-0.4,5.2H315.8z M348.8,55.9
		c0.1-7.2-2.9-18.3-15.6-18.3c-11.4,0-16.4,10.5-17.3,18.3H348.8z"/>
	<path class="st0" d="M399.6,79.3c5,3.1,12.3,5.6,20,5.6c11.4,0,18-6,18-14.7c0-8.1-4.6-12.7-16.3-17.2c-14.1-5-22.8-12.3-22.8-24.4
		c0-13.4,11.1-23.4,27.9-23.4c8.8,0,15.2,2,19.1,4.2l-3.1,9.1c-2.8-1.5-8.6-4.1-16.4-4.1c-11.8,0-16.3,7-16.3,12.9
		c0,8.1,5.2,12,17.2,16.6c14.6,5.6,22,12.7,22,25.3c0,13.3-9.9,24.8-30.2,24.8c-8.3,0-17.4-2.4-22-5.5L399.6,79.3z"/>
	<path class="st0" d="M475,59.3h0.3c1.5-2.2,3.7-4.9,5.5-7L499,30.9h13.6l-23.9,25.5l27.3,36.5h-13.7l-21.4-29.7l-5.8,6.4v23.3
		h-11.1V2H475V59.3z"/>
	<path class="st0" d="M538.6,13.5c0.1,3.8-2.7,6.9-7.2,6.9c-4,0-6.8-3.1-6.8-6.9c0-4,2.9-7,7-7C535.9,6.5,538.6,9.5,538.6,13.5z
		 M526.1,92.9v-62h11.3v62H526.1z"/>
	<path class="st0" d="M562.3,63.9c0.3,15.2,10,21.5,21.2,21.5c8.1,0,12.9-1.4,17.2-3.2l1.9,8.1c-4,1.8-10.8,3.8-20.6,3.8
		c-19.1,0-30.5-12.5-30.5-31.2c0-18.7,11-33.4,29.1-33.4c20.2,0,25.6,17.8,25.6,29.2c0,2.3-0.3,4.1-0.4,5.2H562.3z M595.3,55.9
		c0.1-7.2-2.9-18.3-15.6-18.3c-11.4,0-16.4,10.5-17.3,18.3H595.3z"/>
	<path class="st0" d="M618.6,81.4c3.3,2.2,9.2,4.5,14.8,4.5c8.2,0,12-4.1,12-9.2c0-5.4-3.2-8.3-11.5-11.4
		c-11.1-4-16.4-10.1-16.4-17.5c0-10,8.1-18.2,21.4-18.2c6.3,0,11.8,1.8,15.2,3.8l-2.8,8.2C649,40,644.5,38,638.7,38
		c-6.7,0-10.4,3.8-10.4,8.4c0,5.1,3.7,7.4,11.8,10.5c10.8,4.1,16.3,9.5,16.3,18.7c0,10.9-8.4,18.6-23.2,18.6
		c-6.8,0-13.1-1.7-17.4-4.2L618.6,81.4z"/>
	<path class="st0" d="M662.2,108.6c2.8-7.6,6.3-21.2,7.7-30.6l12.5-1.3c-2.9,10.9-8.6,25.1-12.2,31.1L662.2,108.6z"/>
	<path class="st0" d="M723.5,6.6h11.1v76.9h36.9v9.3h-48V6.6z"/>
	<path class="st0" d="M796,13.5c0.1,3.8-2.7,6.9-7.2,6.9c-4,0-6.8-3.1-6.8-6.9c0-4,2.9-7,7-7C793.3,6.5,796,9.5,796,13.5z
		 M783.5,92.9v-62h11.3v62H783.5z"/>
	<path class="st0" d="M813.4,47.7c0-6.4-0.1-11.6-0.5-16.8h9.9l0.5,10h0.4c3.5-5.9,9.2-11.4,19.5-11.4c8.4,0,14.8,5.1,17.5,12.4h0.3
		c1.9-3.5,4.4-6.1,6.9-8.1c3.7-2.8,7.8-4.4,13.7-4.4c8.2,0,20.4,5.4,20.4,26.9v36.5h-11V57.8c0-11.9-4.4-19.1-13.4-19.1
		c-6.4,0-11.4,4.7-13.3,10.2c-0.5,1.5-0.9,3.6-0.9,5.6v38.3h-11V55.8c0-9.9-4.4-17-12.9-17c-7,0-12.2,5.6-14,11.3
		c-0.6,1.7-0.9,3.6-0.9,5.5v37.4h-11V47.7z"/>
	<path class="st0" d="M932.7,13.5c0.1,3.8-2.7,6.9-7.2,6.9c-4,0-6.8-3.1-6.8-6.9c0-4,2.9-7,7-7C930.1,6.5,932.7,9.5,932.7,13.5z
		 M920.2,92.9v-62h11.3v62H920.2z"/>
	<path class="st0" d="M963.7,13.1v17.8h16.1v8.6h-16.1v33.4c0,7.7,2.2,12,8.4,12c2.9,0,5.1-0.4,6.5-0.8l0.5,8.4
		c-2.2,0.9-5.6,1.5-10,1.5c-5.2,0-9.5-1.7-12.2-4.7c-3.2-3.3-4.4-8.8-4.4-16.1V39.5h-9.6v-8.6h9.6V16.1L963.7,13.1z"/>
	<path class="st0" d="M992.5,2h11.3v90.9h-11.3V2z"/>
	<path class="st0" d="M1029,63.9c0.3,15.2,10,21.5,21.2,21.5c8.1,0,12.9-1.4,17.2-3.2l1.9,8.1c-4,1.8-10.8,3.8-20.6,3.8
		c-19.1,0-30.5-12.5-30.5-31.2c0-18.7,11-33.4,29.1-33.4c20.2,0,25.6,17.8,25.6,29.2c0,2.3-0.3,4.1-0.4,5.2H1029z M1062,55.9
		c0.1-7.2-2.9-18.3-15.6-18.3c-11.4,0-16.4,10.5-17.3,18.3H1062z"/>
	<path class="st0" d="M1085.3,81.4c3.3,2.2,9.2,4.5,14.8,4.5c8.2,0,12-4.1,12-9.2c0-5.4-3.2-8.3-11.5-11.4
		c-11.1-4-16.4-10.1-16.4-17.5c0-10,8.1-18.2,21.4-18.2c6.3,0,11.8,1.8,15.2,3.8l-2.8,8.2c-2.4-1.5-6.9-3.6-12.7-3.6
		c-6.7,0-10.4,3.8-10.4,8.4c0,5.1,3.7,7.4,11.8,10.5c10.8,4.1,16.3,9.5,16.3,18.7c0,10.9-8.4,18.6-23.2,18.6
		c-6.8,0-13.1-1.7-17.4-4.2L1085.3,81.4z"/>
	<path class="st0" d="M1136,81.4c3.3,2.2,9.2,4.5,14.8,4.5c8.2,0,12-4.1,12-9.2c0-5.4-3.2-8.3-11.5-11.4
		c-11.1-4-16.4-10.1-16.4-17.5c0-10,8.1-18.2,21.4-18.2c6.3,0,11.8,1.8,15.2,3.8l-2.8,8.2c-2.4-1.5-6.9-3.6-12.7-3.6
		c-6.7,0-10.4,3.8-10.4,8.4c0,5.1,3.7,7.4,11.8,10.5c10.8,4.1,16.3,9.5,16.3,18.7c0,10.9-8.4,18.6-23.2,18.6
		c-6.8,0-13.1-1.7-17.4-4.2L1136,81.4z"/>
	<path class="st0" d="M1214.2,79.3c5,3.1,12.3,5.6,20,5.6c11.4,0,18-6,18-14.7c0-8.1-4.6-12.7-16.3-17.2
		c-14.1-5-22.8-12.3-22.8-24.4c0-13.4,11.1-23.4,27.9-23.4c8.8,0,15.2,2,19.1,4.2l-3.1,9.1c-2.8-1.5-8.6-4.1-16.4-4.1
		c-11.8,0-16.3,7-16.3,12.9c0,8.1,5.2,12,17.2,16.6c14.6,5.6,22,12.7,22,25.3c0,13.3-9.9,24.8-30.2,24.8c-8.3,0-17.4-2.4-22-5.5
		L1214.2,79.3z"/>
	<path class="st0" d="M1291.6,13.1v17.8h16.1v8.6h-16.1v33.4c0,7.7,2.2,12,8.4,12c2.9,0,5.1-0.4,6.5-0.8l0.5,8.4
		c-2.2,0.9-5.6,1.5-10,1.5c-5.2,0-9.5-1.7-12.2-4.7c-3.2-3.3-4.4-8.8-4.4-16.1V39.5h-9.6v-8.6h9.6V16.1L1291.6,13.1z"/>
	<path class="st0" d="M1375.7,61.4c0,22.9-15.9,32.9-30.8,32.9c-16.8,0-29.7-12.3-29.7-31.9c0-20.7,13.6-32.9,30.7-32.9
		C1363.7,29.5,1375.7,42.4,1375.7,61.4z M1326.6,62c0,13.6,7.8,23.8,18.8,23.8c10.8,0,18.8-10.1,18.8-24.1
		c0-10.5-5.2-23.8-18.6-23.8C1332.3,38,1326.6,50.3,1326.6,62z"/>
	<path class="st0" d="M1389.9,50.3c0-7.3-0.1-13.6-0.5-19.3h9.9l0.4,12.2h0.5c2.8-8.3,9.6-13.6,17.2-13.6c1.3,0,2.2,0.1,3.2,0.4
		v10.6c-1.2-0.3-2.3-0.4-3.8-0.4c-7.9,0-13.6,6-15.1,14.5c-0.3,1.5-0.5,3.3-0.5,5.2v33h-11.1V50.3z"/>
	<path class="st0" d="M1465.5,92.9l-0.9-7.8h-0.4c-3.5,4.9-10.1,9.2-18.9,9.2c-12.5,0-18.9-8.8-18.9-17.8c0-15,13.3-23.2,37.2-23
		v-1.3c0-5.1-1.4-14.3-14.1-14.3c-5.8,0-11.8,1.8-16.1,4.6l-2.6-7.4c5.1-3.3,12.5-5.5,20.4-5.5c18.9,0,23.6,12.9,23.6,25.3V78
		c0,5.4,0.3,10.6,1,14.8H1465.5z M1463.8,61.3c-12.3-0.3-26.2,1.9-26.2,14c0,7.3,4.9,10.8,10.6,10.8c8.1,0,13.2-5.1,15-10.4
		c0.4-1.2,0.6-2.4,0.6-3.6V61.3z"/>
	<path class="st0" d="M1546.2,30.9c-0.3,4.5-0.5,9.5-0.5,17v36c0,14.2-2.8,22.9-8.8,28.3c-6,5.6-14.7,7.4-22.5,7.4
		c-7.4,0-15.6-1.8-20.6-5.1l2.8-8.6c4.1,2.6,10.5,4.9,18.2,4.9c11.5,0,20-6,20-21.6v-6.9h-0.3c-3.5,5.8-10.1,10.4-19.7,10.4
		c-15.4,0-26.4-13.1-26.4-30.2c0-21,13.7-32.9,27.9-32.9c10.8,0,16.6,5.6,19.3,10.8h0.3l0.5-9.3H1546.2z M1534.6,55.4
		c0-1.9-0.1-3.6-0.6-5.1c-2-6.5-7.6-11.9-15.7-11.9c-10.8,0-18.4,9.1-18.4,23.4c0,12.2,6.1,22.3,18.3,22.3c6.9,0,13.2-4.4,15.6-11.5
		c0.6-1.9,0.9-4.1,0.9-6V55.4z"/>
	<path class="st0" d="M1570.7,63.9c0.3,15.2,10,21.5,21.2,21.5c8.1,0,12.9-1.4,17.2-3.2l1.9,8.1c-4,1.8-10.8,3.8-20.6,3.8
		c-19.1,0-30.5-12.5-30.5-31.2c0-18.7,11-33.4,29.1-33.4c20.2,0,25.6,17.8,25.6,29.2c0,2.3-0.3,4.1-0.4,5.2H1570.7z M1603.7,55.9
		c0.1-7.2-2.9-18.3-15.6-18.3c-11.4,0-16.4,10.5-17.3,18.3H1603.7z"/>
	<path class="st0" d="M1625.8,41.2c0-4.7,3.2-8.1,7.7-8.1c4.5,0,7.4,3.3,7.6,8.1c0,4.5-2.9,7.9-7.7,7.9
		C1628.9,49.1,1625.8,45.6,1625.8,41.2z M1625.8,86.4c0-4.7,3.2-8.1,7.7-8.1c4.5,0,7.4,3.3,7.6,8.1c0,4.5-2.9,7.9-7.7,7.9
		C1628.9,94.3,1625.8,90.8,1625.8,86.4z"/>
	<path class="st0" d="M1695.9,92.9V56.3l-27.3-49.7h12.7l12.2,23.8c3.3,6.5,5.9,11.8,8.6,17.8h0.3c2.4-5.6,5.4-11.3,8.7-17.8
		l12.4-23.8h12.7l-28.9,49.5v36.7H1695.9z"/>
	<path class="st0" d="M1791.9,61.4c0,22.9-15.9,32.9-30.8,32.9c-16.8,0-29.7-12.3-29.7-31.9c0-20.7,13.6-32.9,30.7-32.9
		C1779.8,29.5,1791.9,42.4,1791.9,61.4z M1742.7,62c0,13.6,7.8,23.8,18.8,23.8c10.8,0,18.8-10.1,18.8-24.1
		c0-10.5-5.2-23.8-18.6-23.8C1748.5,38,1742.7,50.3,1742.7,62z"/>
	<path class="st0" d="M1857.9,76c0,6.4,0.1,12,0.5,16.9h-10l-0.6-10.1h-0.3c-2.9,5-9.5,11.5-20.5,11.5c-9.7,0-21.4-5.4-21.4-27.1
		V30.9h11.3v34.3c0,11.8,3.6,19.7,13.8,19.7c7.6,0,12.8-5.2,14.8-10.2c0.6-1.7,1-3.7,1-5.8v-38h11.3V76z"/>
	<path class="st0" d="M1876.6,50.3c0-7.3-0.1-13.6-0.5-19.3h9.9l0.4,12.2h0.5c2.8-8.3,9.6-13.6,17.2-13.6c1.3,0,2.2,0.1,3.2,0.4
		v10.6c-1.2-0.3-2.3-0.4-3.8-0.4c-7.9,0-13.6,6-15.1,14.5c-0.3,1.5-0.5,3.3-0.5,5.2v33h-11.1V50.3z"/>
	<path class="st0" d="M1946,7.8c6.8-1,14.8-1.8,23.7-1.8c16,0,27.4,3.7,34.9,10.8c7.7,7,12.2,17,12.2,31c0,14.1-4.4,25.6-12.4,33.5
		c-8.1,8.1-21.4,12.4-38.1,12.4c-7.9,0-14.6-0.4-20.2-1V7.8z M1957.1,84c2.8,0.5,6.9,0.6,11.3,0.6c23.8,0,36.7-13.3,36.7-36.6
		c0.1-20.4-11.4-33.3-34.9-33.3c-5.8,0-10.1,0.5-13.1,1.2V84z"/>
	<path class="st0" d="M2065.1,92.9l-0.9-7.8h-0.4c-3.5,4.9-10.1,9.2-18.9,9.2c-12.5,0-18.9-8.8-18.9-17.8c0-15,13.3-23.2,37.2-23
		v-1.3c0-5.1-1.4-14.3-14.1-14.3c-5.8,0-11.8,1.8-16.1,4.6l-2.6-7.4c5.1-3.3,12.5-5.5,20.4-5.5c18.9,0,23.6,12.9,23.6,25.3V78
		c0,5.4,0.3,10.6,1,14.8H2065.1z M2063.5,61.3c-12.3-0.3-26.2,1.9-26.2,14c0,7.3,4.9,10.8,10.6,10.8c8.1,0,13.2-5.1,15-10.4
		c0.4-1.2,0.6-2.4,0.6-3.6V61.3z"/>
	<path class="st0" d="M2105.6,13.1v17.8h16.1v8.6h-16.1v33.4c0,7.7,2.2,12,8.4,12c2.9,0,5.1-0.4,6.5-0.8l0.5,8.4
		c-2.2,0.9-5.6,1.5-10,1.5c-5.2,0-9.5-1.7-12.2-4.7c-3.2-3.3-4.4-8.8-4.4-16.1V39.5h-9.6v-8.6h9.6V16.1L2105.6,13.1z"/>
	<path class="st0" d="M2168.7,92.9l-0.9-7.8h-0.4c-3.5,4.9-10.1,9.2-18.9,9.2c-12.5,0-18.9-8.8-18.9-17.8c0-15,13.3-23.2,37.2-23
		v-1.3c0-5.1-1.4-14.3-14.1-14.3c-5.8,0-11.8,1.8-16.1,4.6L2134,35c5.1-3.3,12.5-5.5,20.4-5.5c18.9,0,23.6,12.9,23.6,25.3V78
		c0,5.4,0.3,10.6,1,14.8H2168.7z M2167,61.3c-12.3-0.3-26.2,1.9-26.2,14c0,7.3,4.9,10.8,10.6,10.8c8.1,0,13.2-5.1,15-10.4
		c0.4-1.2,0.6-2.4,0.6-3.6V61.3z"/>
	<path class="st0" d="M2188.8,108.6c2.8-7.6,6.3-21.2,7.7-30.6l12.5-1.3c-2.9,10.9-8.6,25.1-12.2,31.1L2188.8,108.6z"/>
	<path class="st0" d="M2261.2,6.6v36.1h41.7V6.6h11.3v86.3H2303V52.4h-41.7v40.4h-11.1V6.6H2261.2z"/>
	<path class="st0" d="M2338.4,30.9l13.6,36.6c1.4,4.1,2.9,9,4,12.7h0.3c1.2-3.7,2.4-8.4,4-12.9l12.3-36.4h11.9l-16.9,44.2
		c-8.1,21.2-13.6,32.1-21.2,38.8c-5.5,4.9-11,6.8-13.8,7.3l-2.8-9.5c2.8-0.9,6.5-2.7,9.9-5.5c3.1-2.4,6.9-6.8,9.5-12.5
		c0.5-1.2,0.9-2,0.9-2.7c0-0.6-0.3-1.5-0.8-2.9l-22.9-57.1H2338.4z"/>
	<path class="st0" d="M2394.1,92.9c0.3-4.2,0.5-10.5,0.5-16V2h11.1v38.9h0.3c4-6.9,11.1-11.4,21.1-11.4c15.4,0,26.2,12.8,26.1,31.6
		c0,22.1-14,33.2-27.8,33.2c-9,0-16.1-3.5-20.7-11.6h-0.4l-0.5,10.2H2394.1z M2405.7,68c0,1.4,0.3,2.8,0.5,4.1
		c2.2,7.8,8.7,13.2,16.9,13.2c11.8,0,18.8-9.6,18.8-23.8c0-12.4-6.4-23-18.4-23c-7.7,0-14.8,5.2-17.2,13.8c-0.3,1.3-0.6,2.8-0.6,4.6
		V68z"/>
	<path class="st0" d="M2467.4,50.3c0-7.3-0.1-13.6-0.5-19.3h9.9l0.4,12.2h0.5c2.8-8.3,9.6-13.6,17.2-13.6c1.3,0,2.2,0.1,3.2,0.4
		v10.6c-1.2-0.3-2.3-0.4-3.8-0.4c-7.9,0-13.6,6-15.1,14.5c-0.3,1.5-0.5,3.3-0.5,5.2v33h-11.1V50.3z"/>
	<path class="st0" d="M2522.3,13.5c0.1,3.8-2.7,6.9-7.2,6.9c-4,0-6.8-3.1-6.8-6.9c0-4,2.9-7,7-7C2519.7,6.5,2522.3,9.5,2522.3,13.5z
		 M2509.8,92.9v-62h11.3v62H2509.8z"/>
	<path class="st0" d="M2593.3,2v74.9c0,5.5,0.1,11.8,0.5,16h-10.1l-0.5-10.8h-0.3c-3.5,6.9-11,12.2-21.1,12.2
		c-15,0-26.5-12.7-26.5-31.5c-0.1-20.6,12.7-33.3,27.8-33.3c9.5,0,15.9,4.5,18.7,9.5h0.3V2H2593.3z M2582,56.1
		c0-1.4-0.1-3.3-0.5-4.7c-1.7-7.2-7.8-13.1-16.3-13.1c-11.6,0-18.6,10.2-18.6,23.9c0,12.5,6.1,22.9,18.3,22.9
		c7.6,0,14.5-5,16.5-13.4c0.4-1.5,0.5-3.1,0.5-4.9V56.1z"/>
	<path class="st0" d="M2638.1,54.1v8.3h-31.6v-8.3H2638.1z"/>
	<path class="st0" d="M2696.3,52.4h-33.5v31.1h37.4v9.3h-48.5V6.6h46.6v9.3h-35.5v27.3h33.5V52.4z"/>
	<path class="st0" d="M2714.2,47.7c0-6.4-0.1-11.6-0.5-16.8h10l0.6,10.2h0.3c3.1-5.9,10.2-11.6,20.5-11.6c8.6,0,21.9,5.1,21.9,26.4
		v37h-11.3V57.2c0-10-3.7-18.3-14.3-18.3c-7.4,0-13.2,5.2-15.1,11.5c-0.5,1.4-0.8,3.3-0.8,5.2v37.2h-11.3V47.7z"/>
	<path class="st0" d="M2829.4,90.6c-2.9,1.5-9.5,3.6-17.8,3.6c-18.7,0-30.8-12.7-30.8-31.6c0-19.1,13.1-32.9,33.3-32.9
		c6.7,0,12.5,1.7,15.6,3.2l-2.6,8.7c-2.7-1.5-6.9-2.9-13.1-2.9c-14.2,0-21.9,10.5-21.9,23.4c0,14.3,9.2,23.2,21.5,23.2
		c6.4,0,10.6-1.7,13.8-3.1L2829.4,90.6z"/>
	<path class="st0" d="M2842.6,50.3c0-7.3-0.1-13.6-0.5-19.3h9.9l0.4,12.2h0.5c2.8-8.3,9.6-13.6,17.2-13.6c1.3,0,2.2,0.1,3.2,0.4
		v10.6c-1.2-0.3-2.3-0.4-3.8-0.4c-7.9,0-13.6,6-15.1,14.5c-0.3,1.5-0.5,3.3-0.5,5.2v33h-11.1V50.3z"/>
	<path class="st0" d="M2891.7,30.9l13.6,36.6c1.4,4.1,2.9,9,4,12.7h0.3c1.2-3.7,2.4-8.4,4-12.9l12.3-36.4h11.9l-16.9,44.2
		c-8.1,21.2-13.6,32.1-21.2,38.8c-5.5,4.9-11,6.8-13.8,7.3l-2.8-9.5c2.8-0.9,6.5-2.7,9.9-5.5c3.1-2.4,6.9-6.8,9.5-12.5
		c0.5-1.2,0.9-2,0.9-2.7c0-0.6-0.3-1.5-0.8-2.9l-22.9-57.1H2891.7z"/>
	<path class="st0" d="M2947.9,51.1c0-7.9-0.3-14.3-0.5-20.2h10.1l0.5,10.6h0.3c4.6-7.6,11.9-12,22-12c15,0,26.2,12.7,26.2,31.5
		c0,22.3-13.6,33.3-28.2,33.3c-8.2,0-15.4-3.6-19.1-9.7h-0.3v33.7h-11.1V51.1z M2959.1,67.7c0,1.7,0.3,3.2,0.5,4.6
		c2,7.8,8.8,13.2,16.9,13.2c11.9,0,18.8-9.7,18.8-23.9c0-12.4-6.5-23-18.4-23c-7.7,0-14.8,5.5-17,14c-0.4,1.4-0.8,3.1-0.8,4.6V67.7z
		"/>
	<path class="st0" d="M3034.3,13.1v17.8h16.1v8.6h-16.1v33.4c0,7.7,2.2,12,8.4,12c2.9,0,5.1-0.4,6.5-0.8l0.5,8.4
		c-2.2,0.9-5.6,1.5-10,1.5c-5.2,0-9.5-1.7-12.2-4.7c-3.2-3.3-4.4-8.8-4.4-16.1V39.5h-9.6v-8.6h9.6V16.1L3034.3,13.1z"/>
	<path class="st0" d="M3068.6,63.9c0.3,15.2,10,21.5,21.2,21.5c8.1,0,12.9-1.4,17.2-3.2l1.9,8.1c-4,1.8-10.8,3.8-20.6,3.8
		c-19.1,0-30.5-12.5-30.5-31.2c0-18.7,11-33.4,29.1-33.4c20.2,0,25.6,17.8,25.6,29.2c0,2.3-0.3,4.1-0.4,5.2H3068.6z M3101.7,55.9
		c0.1-7.2-2.9-18.3-15.6-18.3c-11.4,0-16.4,10.5-17.3,18.3H3101.7z"/>
	<path class="st0" d="M3180,2v74.9c0,5.5,0.1,11.8,0.5,16h-10.1l-0.5-10.8h-0.3c-3.5,6.9-11,12.2-21.1,12.2
		c-15,0-26.5-12.7-26.5-31.5c-0.1-20.6,12.7-33.3,27.8-33.3c9.5,0,15.9,4.5,18.7,9.5h0.3V2H3180z M3168.7,56.1
		c0-1.4-0.1-3.3-0.5-4.7c-1.7-7.2-7.8-13.1-16.3-13.1c-11.6,0-18.6,10.2-18.6,23.9c0,12.5,6.1,22.9,18.3,22.9
		c7.6,0,14.5-5,16.5-13.4c0.4-1.5,0.5-3.1,0.5-4.9V56.1z"/>
	<path class="st0" d="M3260.1,92.9l-0.9-7.8h-0.4c-3.5,4.9-10.1,9.2-18.9,9.2c-12.5,0-18.9-8.8-18.9-17.8c0-15,13.3-23.2,37.2-23
		v-1.3c0-5.1-1.4-14.3-14.1-14.3c-5.8,0-11.8,1.8-16.1,4.6l-2.6-7.4c5.1-3.3,12.5-5.5,20.4-5.5c18.9,0,23.6,12.9,23.6,25.3V78
		c0,5.4,0.3,10.6,1,14.8H3260.1z M3258.5,61.3c-12.3-0.3-26.2,1.9-26.2,14c0,7.3,4.9,10.8,10.6,10.8c8.1,0,13.2-5.1,15-10.4
		c0.4-1.2,0.6-2.4,0.6-3.6V61.3z"/>
	<path class="st0" d="M3287.5,47.7c0-6.4-0.1-11.6-0.5-16.8h10l0.6,10.2h0.3c3.1-5.9,10.2-11.6,20.5-11.6c8.6,0,21.9,5.1,21.9,26.4
		v37H3329V57.2c0-10-3.7-18.3-14.3-18.3c-7.4,0-13.2,5.2-15.1,11.5c-0.5,1.4-0.8,3.3-0.8,5.2v37.2h-11.3V47.7z"/>
	<path class="st0" d="M3412.1,2v74.9c0,5.5,0.1,11.8,0.5,16h-10.1l-0.5-10.8h-0.3c-3.5,6.9-11,12.2-21.1,12.2
		c-15,0-26.5-12.7-26.5-31.5c-0.1-20.6,12.7-33.3,27.8-33.3c9.5,0,15.9,4.5,18.7,9.5h0.3V2H3412.1z M3400.8,56.1
		c0-1.4-0.1-3.3-0.5-4.7c-1.7-7.2-7.8-13.1-16.3-13.1c-11.6,0-18.6,10.2-18.6,23.9c0,12.5,6.1,22.9,18.3,22.9
		c7.6,0,14.5-5,16.5-13.4c0.4-1.5,0.5-3.1,0.5-4.9V56.1z"/>
	<path class="st0" d="M3456.7,79.3c5,3.1,12.3,5.6,20,5.6c11.4,0,18-6,18-14.7c0-8.1-4.6-12.7-16.3-17.2
		c-14.1-5-22.8-12.3-22.8-24.4c0-13.4,11.1-23.4,27.9-23.4c8.8,0,15.2,2,19.1,4.2l-3.1,9.1c-2.8-1.5-8.6-4.1-16.4-4.1
		c-11.8,0-16.3,7-16.3,12.9c0,8.1,5.2,12,17.2,16.6c14.6,5.6,22,12.7,22,25.3c0,13.3-9.9,24.8-30.2,24.8c-8.3,0-17.4-2.4-22-5.5
		L3456.7,79.3z"/>
	<path class="st0" d="M3532.1,59.3h0.3c1.5-2.2,3.7-4.9,5.5-7l18.2-21.4h13.6l-23.9,25.5l27.3,36.5h-13.7l-21.4-29.7l-5.8,6.4v23.3
		H3521V2h11.1V59.3z"/>
	<path class="st0" d="M3586.8,30.9l13.6,36.6c1.4,4.1,2.9,9,4,12.7h0.3c1.2-3.7,2.4-8.4,4-12.9l12.3-36.4h11.9l-16.9,44.2
		c-8.1,21.2-13.6,32.1-21.2,38.8c-5.5,4.9-11,6.8-13.8,7.3l-2.8-9.5c2.8-0.9,6.5-2.7,9.9-5.5c3.1-2.4,6.9-6.8,9.5-12.5
		c0.5-1.2,0.9-2,0.9-2.7c0-0.6-0.3-1.5-0.8-2.9l-22.9-57.1H3586.8z"/>
	<path class="st0" d="M3668.6,54.1v8.3h-31.6v-8.3H3668.6z"/>
	<path class="st0" d="M3693.3,6.6v36.1h41.7V6.6h11.3v86.3H3735V52.4h-41.7v40.4h-11.1V6.6H3693.3z"/>
	<path class="st0" d="M3779,13.5c0.1,3.8-2.7,6.9-7.2,6.9c-4,0-6.8-3.1-6.8-6.9c0-4,2.9-7,7-7C3776.3,6.5,3779,9.5,3779,13.5z
		 M3766.5,92.9v-62h11.3v62H3766.5z"/>
	<path class="st0" d="M3849.8,30.9c-0.3,4.5-0.5,9.5-0.5,17v36c0,14.2-2.8,22.9-8.8,28.3c-6,5.6-14.7,7.4-22.5,7.4
		c-7.4,0-15.6-1.8-20.6-5.1l2.8-8.6c4.1,2.6,10.5,4.9,18.2,4.9c11.5,0,20-6,20-21.6v-6.9h-0.3c-3.5,5.8-10.1,10.4-19.7,10.4
		c-15.4,0-26.4-13.1-26.4-30.2c0-21,13.7-32.9,27.9-32.9c10.8,0,16.6,5.6,19.3,10.8h0.3l0.5-9.3H3849.8z M3838.2,55.4
		c0-1.9-0.1-3.6-0.6-5.1c-2-6.5-7.6-11.9-15.7-11.9c-10.8,0-18.4,9.1-18.4,23.4c0,12.2,6.1,22.3,18.3,22.3c6.9,0,13.2-4.4,15.6-11.5
		c0.6-1.9,0.9-4.1,0.9-6V55.4z"/>
	<path class="st0" d="M3868,2h11.3v38.7h0.3c1.8-3.2,4.6-6,8.1-7.9c3.3-1.9,7.3-3.2,11.5-3.2c8.3,0,21.6,5.1,21.6,26.5v36.9h-11.3
		V57.3c0-10-3.7-18.4-14.3-18.4c-7.3,0-13.1,5.1-15.1,11.3c-0.6,1.5-0.8,3.2-0.8,5.4v37.4H3868V2z"/>
	<path class="st0" d="M3965,79.3c5,3.1,12.3,5.6,20,5.6c11.4,0,18-6,18-14.7c0-8.1-4.6-12.7-16.3-17.2c-14.1-5-22.8-12.3-22.8-24.4
		c0-13.4,11.1-23.4,27.9-23.4c8.8,0,15.2,2,19.1,4.2l-3.1,9.1c-2.8-1.5-8.6-4.1-16.4-4.1c-11.8,0-16.3,7-16.3,12.9
		c0,8.1,5.2,12,17.2,16.6c14.6,5.6,22,12.7,22,25.3c0,13.3-9.9,24.8-30.2,24.8c-8.3,0-17.4-2.4-22-5.5L3965,79.3z"/>
	<path class="st0" d="M4063.9,92.9l-0.9-7.8h-0.4c-3.5,4.9-10.1,9.2-18.9,9.2c-12.5,0-18.9-8.8-18.9-17.8c0-15,13.3-23.2,37.2-23
		v-1.3c0-5.1-1.4-14.3-14.1-14.3c-5.8,0-11.8,1.8-16.1,4.6l-2.6-7.4c5.1-3.3,12.5-5.5,20.4-5.5c18.9,0,23.6,12.9,23.6,25.3V78
		c0,5.4,0.3,10.6,1,14.8H4063.9z M4062.3,61.3c-12.3-0.3-26.2,1.9-26.2,14c0,7.3,4.9,10.8,10.6,10.8c8.1,0,13.2-5.1,15-10.4
		c0.4-1.2,0.6-2.4,0.6-3.6V61.3z"/>
	<path class="st0" d="M4092.5,92.9V39.5h-8.7v-8.6h8.7V28c0-8.7,1.9-16.6,7.2-21.6c4.2-4.1,9.9-5.8,15.1-5.8c4,0,7.4,0.9,9.6,1.8
		l-1.5,8.7c-1.7-0.8-4-1.4-7.2-1.4c-9.6,0-12,8.4-12,17.9v3.3h15v8.6h-15v53.4H4092.5z"/>
	<path class="st0" d="M4133.3,63.9c0.3,15.2,10,21.5,21.2,21.5c8.1,0,12.9-1.4,17.2-3.2l1.9,8.1c-4,1.8-10.8,3.8-20.6,3.8
		c-19.1,0-30.5-12.5-30.5-31.2c0-18.7,11-33.4,29.1-33.4c20.2,0,25.6,17.8,25.6,29.2c0,2.3-0.3,4.1-0.4,5.2H4133.3z M4166.3,55.9
		c0.1-7.2-2.9-18.3-15.6-18.3c-11.4,0-16.4,10.5-17.3,18.3H4166.3z"/>
	<path class="st0" d="M4189,86.4c0-4.6,3.2-7.9,7.6-7.9c4.6,0,7.6,3.3,7.6,7.9c0,4.5-2.9,7.9-7.6,7.9
		C4192.1,94.3,4189,90.8,4189,86.4z M4192.2,68l-1.8-61.4h12.3l-1.8,61.4H4192.2z"/>
</g>
</svg>
