<svg width="23" height="21" viewBox="0 0 23 21" fill="none" xmlns="http://www.w3.org/2000/svg">
<path d="M5.77492 5.84825C6.09212 5.785 6.35183 5.58662 6.486 5.30296C7.97142 2.16825 11.4147 0.415457 14.8561 1.04987C17.9918 1.62487 20.4499 4.12804 20.9741 7.28C21.1293 8.21054 21.1178 9.14204 20.9425 10.0496C20.885 10.3457 21.0124 10.6754 21.274 10.913C22.3713 11.9107 23 13.3319 23 14.8135C23 17.7191 20.6358 20.0843 17.7292 20.0843H7.1875C3.22383 20.0843 0 16.8605 0 12.8968C0 9.48033 2.42842 6.51525 5.77492 5.84825ZM7.1875 18.1667H17.7292C19.5788 18.1667 21.0833 16.6621 21.0833 14.8125C21.0833 13.8705 20.6828 12.9648 19.9851 12.3304C19.2318 11.6452 18.8782 10.6313 19.0622 9.68254C19.1945 9.00021 19.2021 8.29775 19.0852 7.59241C18.699 5.27133 16.8187 3.35562 14.513 2.933C14.144 2.86592 13.777 2.83333 13.4148 2.83333C11.1991 2.83333 9.19329 4.06862 8.21867 6.12425C7.82288 6.95992 7.06867 7.5445 6.15058 7.72754C3.69725 8.21725 1.91763 10.3907 1.91763 12.8968C1.91763 15.8025 4.28279 18.1676 7.18846 18.1676L7.1875 18.1667ZM8.50904 10.7808C8.13433 11.1555 8.13433 11.7612 8.50904 12.1359C8.69592 12.3227 8.94125 12.4167 9.18658 12.4167C9.43192 12.4167 9.67725 12.3227 9.86413 12.1359L11.5 10.5V15.2917C11.5 15.8216 11.9293 16.25 12.4583 16.25C12.9873 16.25 13.4167 15.8216 13.4167 15.2917V10.5L15.0525 12.1359C15.4272 12.5106 16.0329 12.5106 16.4076 12.1359C16.7823 11.7612 16.7823 11.1555 16.4076 10.7808L13.8134 8.18658C13.4435 7.81667 12.9576 7.63075 12.4718 7.62787L12.4583 7.625L12.4449 7.62787C11.9581 7.63075 11.4732 7.81667 11.1033 8.18658L8.50904 10.7808Z" fill="white"/>
</svg>
