<?xml version="1.0" encoding="utf-8"?>
<!-- Generator: Adobe Illustrator 28.1.0, SVG Export Plug-In . SVG Version: 6.00 Build 0)  -->
<svg version="1.1" id="Warstwa_1" xmlns="http://www.w3.org/2000/svg" xmlns:xlink="http://www.w3.org/1999/xlink" x="0px" y="0px"
	 viewBox="0 0 23 21" style="enable-background:new 0 0 23 21;" xml:space="preserve">
<path d="M5.8,5.8c0.3-0.1,0.6-0.3,0.7-0.5C8,2.2,11.4,0.4,14.9,1C18,1.6,20.4,4.1,21,7.3c0.2,0.9,0.1,1.9,0,2.8
	c-0.1,0.3,0.1,0.6,0.3,0.9c1.1,1,1.7,2.4,1.7,3.9c0,2.9-2.4,5.3-5.3,5.3H7.2c-4,0-7.2-3.2-7.2-7.2C0,9.5,2.4,6.5,5.8,5.8z M7.2,18.2
	h10.5c1.8,0,3.4-1.5,3.4-3.4c0-0.9-0.4-1.8-1.1-2.5c-0.8-0.7-1.1-1.7-0.9-2.6c0.1-0.7,0.1-1.4,0-2.1c-0.4-2.3-2.3-4.2-4.6-4.7
	c-0.4-0.1-0.7-0.1-1.1-0.1c-2.2,0-4.2,1.2-5.2,3.3C7.8,7,7.1,7.5,6.2,7.7c-2.5,0.5-4.2,2.7-4.2,5.2C1.9,15.8,4.3,18.2,7.2,18.2
	L7.2,18.2z M8.5,10.8c-0.4,0.4-0.4,1,0,1.4c0.2,0.2,0.4,0.3,0.7,0.3c0.2,0,0.5-0.1,0.7-0.3l1.6-1.6v4.8c0,0.5,0.4,1,1,1
	c0.5,0,1-0.4,1-1v-4.8l1.6,1.6c0.4,0.4,1,0.4,1.4,0c0.4-0.4,0.4-1,0-1.4l-2.6-2.6c-0.4-0.4-0.9-0.6-1.3-0.6l0,0l0,0
	c-0.5,0-1,0.2-1.3,0.6L8.5,10.8z"/>
</svg>
