<svg width="60" height="60" viewBox="0 0 60 60" fill="none" xmlns="http://www.w3.org/2000/svg">
<path d="M52.4998 32.5H42.4998C38.3748 32.5 34.9998 35.875 34.9998 40V50C34.9998 54.125 38.3748 57.5 42.4998 57.5H52.4998C56.6248 57.5 59.9998 54.125 59.9998 50V40C59.9998 35.875 56.6248 32.5 52.4998 32.5ZM54.9998 50C54.9998 51.375 53.8748 52.5 52.4998 52.5H42.4998C41.1248 52.5 39.9998 51.375 39.9998 50V40C39.9998 38.625 41.1248 37.5 42.4998 37.5H52.4998C53.8748 37.5 54.9998 38.625 54.9998 40V50ZM52.4998 2.5H47.4998C43.3748 2.5 39.9998 5.875 39.9998 10V15C39.9998 19.125 43.3748 22.5 47.4998 22.5H52.4998C56.6248 22.5 59.9998 19.125 59.9998 15V10C59.9998 5.875 56.6248 2.5 52.4998 2.5ZM54.9998 15C54.9998 16.375 53.8748 17.5 52.4998 17.5H47.4998C46.1248 17.5 44.9998 16.375 44.9998 15V10C44.9998 8.625 46.1248 7.5 47.4998 7.5H52.4998C53.8748 7.5 54.9998 8.625 54.9998 10V15ZM29.2998 45.775C30.2498 46.775 30.2248 48.35 29.2248 49.3L20.2498 57.825C18.8748 59.2 16.9998 59.975 14.9998 59.975C12.9998 59.975 11.1248 59.2 9.69981 57.775L0.774808 49.3C-0.225192 48.35 -0.275192 46.775 0.699808 45.775C1.67481 44.775 3.22481 44.725 4.22481 45.7L12.4998 53.575V2.5C12.4998 1.125 13.6248 0 14.9998 0C16.3748 0 17.4998 1.125 17.4998 2.5V53.575L25.7748 45.7C26.7748 44.75 28.3498 44.775 29.2998 45.775Z" fill="white"/>
</svg>
