<svg width="50" height="60" viewBox="0 0 50 60" fill="none" xmlns="http://www.w3.org/2000/svg">
<path d="M8.1975 16.7325C7.24 15.7375 7.27 14.155 8.265 13.1975L19.7325 2.16252C22.495 -0.602483 27.47 -0.637483 30.305 2.19752L41.735 13.1975C42.73 14.155 42.76 15.7375 41.8025 16.7325C41.3125 17.2425 40.6575 17.5 40 17.5C39.375 17.5 38.75 17.2675 38.2675 16.8025L27.5 6.43752V40C27.5 41.38 26.38 42.5 25 42.5C23.62 42.5 22.5 41.38 22.5 40V6.43752L11.7325 16.8025C10.74 17.76 9.16 17.7275 8.1975 16.7325ZM47.5 20C46.12 20 45 21.12 45 22.5V47.5C45 51.635 41.635 55 37.5 55H12.5C8.365 55 5 51.635 5 47.5V22.5C5 21.12 3.88 20 2.5 20C1.12 20 0 21.12 0 22.5V47.5C0 54.3925 5.6075 60 12.5 60H37.5C44.3925 60 50 54.3925 50 47.5V22.5C50 21.12 48.88 20 47.5 20Z" fill="white"/>
</svg>
