<svg width="50" height="60" viewBox="0 0 50 60" fill="none" xmlns="http://www.w3.org/2000/svg">
<path d="M49.975 25.025V47.5C49.975 54.4 44.375 60 37.475 60H12.5C9.175 60 6.025 58.7 3.65 56.35C1.3 54 0 50.85 0 47.5V25C0 18.1 5.6 12.5 12.5 12.5H15C16.375 12.5 17.5 13.625 17.5 15C17.5 16.375 16.375 17.5 15 17.5H12.5C8.375 17.5 5 20.875 5 25V47.5C5 49.5 5.775 51.4 7.2 52.8C8.625 54.225 10.5 55 12.5 55H37.475C41.6 55 44.975 51.625 44.975 47.5V25.025C44.975 23.025 44.2 21.125 42.775 19.725C41.35 18.325 39.475 17.525 37.475 17.525H35C33.625 17.525 32.5 16.4 32.5 15.025C32.5 13.65 33.625 12.525 35 12.525H37.475H37.5C40.825 12.525 43.975 13.825 46.325 16.175C48.7 18.525 50 21.675 50 25.025H49.975ZM14.225 30.7C13.225 29.75 11.65 29.775 10.7 30.775C9.75 31.775 9.775 33.35 10.8 34.3L19.725 42.8C21.2 44.275 23.125 45 25.05 45C26.975 45 28.85 44.275 30.3 42.85L39.275 34.325C40.275 33.375 40.325 31.8 39.375 30.8C38.425 29.8 36.85 29.75 35.85 30.725L27.575 38.6V2.5C27.575 1.125 26.45 0 25.075 0C23.7 0 22.575 1.125 22.575 2.5V38.575L14.3 30.7H14.225Z" fill="white"/>
</svg>
