<?xml version="1.0" encoding="utf-8"?>
<!-- Generator: Adobe Illustrator 28.0.0, SVG Export Plug-In . SVG Version: 6.00 Build 0)  -->
<svg version="1.1" id="Layer_1" xmlns="http://www.w3.org/2000/svg" xmlns:xlink="http://www.w3.org/1999/xlink" x="0px" y="0px"
	 viewBox="0 0 512 512" style="enable-background:new 0 0 512 512;" xml:space="preserve">
<style type="text/css">
	.st0{fill:#FFFFFF;}
</style>
<path class="st0" d="M277.3,426.7c58.9-0.1,106.6-47.8,106.7-106.7V133.2c0.1-22.7-8.9-44.4-25-60.4L311.2,25
	c-16-16.1-37.7-25.1-60.4-25H149.3C90.5,0.1,42.7,47.8,42.7,106.7V320c0.1,58.9,47.8,106.6,106.7,106.7H277.3z M85.3,320V106.7
	c0-35.3,28.7-64,64-64c0,0,104.9,0.3,106.7,0.5v42.2c0,23.6,19.1,42.7,42.7,42.7h42.2c0.2,1.7,0.5,192,0.5,192c0,35.3-28.7,64-64,64
	h-128C114,384,85.3,355.3,85.3,320z M469.3,170.7v234.7c-0.1,58.9-47.8,106.6-106.7,106.7h-192c-11.8,0-21.3-9.6-21.3-21.3
	c0-11.8,9.6-21.3,21.3-21.3h192c35.3,0,64-28.7,64-64V170.7c0-11.8,9.6-21.3,21.3-21.3C459.8,149.3,469.3,158.9,469.3,170.7z"/>
</svg>
