<?xml version="1.0" encoding="utf-8"?>
<!-- Generator: Adobe Illustrator 28.0.0, SVG Export Plug-In . SVG Version: 6.00 Build 0)  -->
<svg version="1.1" id="Layer_1" xmlns="http://www.w3.org/2000/svg" xmlns:xlink="http://www.w3.org/1999/xlink" x="0px" y="0px"
	 viewBox="0 0 24 24" style="enable-background:new 0 0 24 24;" xml:space="preserve">
<style type="text/css">
	.st0{fill:#FFFFFF;}
</style>
<path class="st0" d="M23.7,22.3l-3.8-3.8L21.1,6H22c0.6,0,1-0.4,1-1s-0.4-1-1-1h-4.1c-0.5-2.3-2.5-4-4.9-4h-2C8.6,0,6.6,1.7,6.1,4
	c0,0-0.7,0-0.7,0L1.7,0.3c-0.4-0.4-1-0.4-1.4,0s-0.4,1,0,1.4l22,22c0.2,0.2,0.5,0.3,0.7,0.3s0.5-0.1,0.7-0.3
	C24.1,23.3,24.1,22.7,23.7,22.3z M18.1,16.7L7.4,6h11.7L18.1,16.7z M11,2h2c1.3,0,2.4,0.8,2.8,2H8.2C8.6,2.8,9.7,2,11,2z M17.8,21.8
	c0.3,0.5,0.2,1.1-0.3,1.4c-0.8,0.5-1.7,0.8-2.7,0.8H9.1c-2.6,0-4.7-1.9-5-4.5l-0.9-9.4C3.2,9.5,3.6,9.1,4.2,9c0.6-0.1,1,0.4,1.1,0.9
	l0.9,9.4c0.1,1.5,1.4,2.7,3,2.7h5.7c0.6,0,1.1-0.2,1.6-0.5C16.9,21.2,17.5,21.4,17.8,21.8z"/>
</svg>
