<svg width="36" height="36" viewBox="0 0 36 36" fill="none" xmlns="http://www.w3.org/2000/svg">
<path d="M18 0C15.525 0 13.5 2.025 13.5 4.5V31.5C13.5 33.975 15.525 36 18 36C20.475 36 22.5 33.975 22.5 31.5V4.5C22.5 2.025 20.475 0 18 0ZM19.5 31.5C19.5 32.325 18.825 33 18 33C17.175 33 16.5 32.325 16.5 31.5V4.5C16.5 3.675 17.175 3 18 3C18.825 3 19.5 3.675 19.5 4.5V31.5ZM31.5 9C29.025 9 27 11.025 27 13.5V31.5C27 33.975 29.025 36 31.5 36C33.975 36 36 33.975 36 31.5V13.5C36 11.025 33.975 9 31.5 9ZM33 31.5C33 32.325 32.325 33 31.5 33C30.675 33 30 32.325 30 31.5V13.5C30 12.675 30.675 12 31.5 12C32.325 12 33 12.675 33 13.5V31.5ZM4.5 18C2.025 18 0 20.025 0 22.5V31.5C0 33.975 2.025 36 4.5 36C6.975 36 9 33.975 9 31.5V22.5C9 20.025 6.975 18 4.5 18ZM6 31.5C6 32.325 5.325 33 4.5 33C3.675 33 3 32.325 3 31.5V22.5C3 21.675 3.675 21 4.5 21C5.325 21 6 21.675 6 22.5V31.5Z" fill="white"/>
</svg>
