<svg width="36" height="36" viewBox="0 0 36 36" fill="none" xmlns="http://www.w3.org/2000/svg">
<g clip-path="url(#clip0_80_131)">
<path d="M33.4395 23.8425L31.5 21.903V34.5C31.491 36.462 28.5075 36.4605 28.5 34.5V21.903L26.5605 23.8425C25.974 24.429 25.026 24.429 24.4395 23.8425C23.853 23.2575 23.853 22.308 24.4395 21.7215L26.859 19.3005C28.5885 17.571 31.4055 17.568 33.1395 19.3005L35.5605 21.7215C36.942 23.1135 34.8315 25.224 33.4395 23.8425Z" fill="white"/>
<path d="M25.5 0H10.5C6.3585 0 3 3.3585 3 7.5V30C3 33.3135 5.6865 36 9 36H24C25.962 35.991 25.9605 33.0075 24 33H9C7.1805 33 5.733 31.371 6.042 29.493C6.285 28.017 7.674 27 9.1695 27H21.0015C22.9635 26.991 22.962 24.0075 21.0015 24H12.0015V3H25.5015C27.987 3 30.0015 5.0145 30.0015 7.5V13.5C30.0105 15.462 32.9925 15.4605 33.0015 13.5V7.5C33.0015 3.3585 29.6415 0 25.5 0ZM9 24C7.902 24 6.8865 24.318 6 24.834V7.5C6 5.547 7.2585 3.897 9 3.276V24Z" fill="white"/>
</g>
<defs>
<clipPath id="clip0_80_131">
<rect width="36" height="36" fill="white"/>
</clipPath>
</defs>
</svg>
