<svg width="35" height="36" viewBox="0 0 35 36" fill="none" xmlns="http://www.w3.org/2000/svg">
<path d="M22.5 9C22.5 4.0365 18.4635 0 13.5 0C8.53654 0 4.50004 4.0365 4.50004 9C4.50004 13.9635 8.53654 18 13.5 18C18.4635 18 22.5 13.9635 22.5 9ZM13.5 15C10.191 15 7.50004 12.309 7.50004 9C7.50004 5.691 10.191 3 13.5 3C16.809 3 19.5 5.691 19.5 9C19.5 12.309 16.809 15 13.5 15ZM13.488 22.407C13.59 23.229 13.008 23.9775 12.1845 24.081C6.94804 24.735 2.99854 29.2125 2.99854 34.5C2.99854 35.328 2.32654 36 1.49854 36C0.670535 36 -0.00146484 35.328 -0.00146484 34.5C-0.00146484 27.7035 5.07754 21.945 11.8125 21.105C12.6255 21.0015 13.383 21.585 13.4865 22.4085L13.488 22.407ZM34.044 28.6995L32.583 27.8565C32.832 27.111 33 26.328 33 25.4985C33 24.669 32.8335 23.886 32.583 23.1405L34.044 22.2975C34.761 21.8835 35.007 20.9655 34.593 20.2485C34.1775 19.53 33.2625 19.2825 32.544 19.6995L31.0845 20.5425C30.027 19.3515 28.6185 18.48 27 18.1515V16.5C27 15.672 26.328 15 25.5 15C24.672 15 24 15.672 24 16.5V18.1515C22.3815 18.4815 20.973 19.353 19.9155 20.5425L18.456 19.6995C17.736 19.284 16.821 19.53 16.407 20.2485C15.993 20.967 16.239 21.8835 16.956 22.2975L18.417 23.1405C18.168 23.886 18 24.669 18 25.4985C18 26.328 18.1665 27.111 18.417 27.8565L16.956 28.6995C16.239 29.1135 15.993 30.0315 16.407 30.7485C16.686 31.23 17.1885 31.4985 17.7075 31.4985C17.961 31.4985 18.219 31.434 18.456 31.2975L19.9155 30.4545C20.973 31.6455 22.3815 32.517 24 32.8455V34.497C24 35.325 24.672 35.997 25.5 35.997C26.328 35.997 27 35.325 27 34.497V32.8455C28.6185 32.5155 30.027 31.644 31.0845 30.4545L32.544 31.2975C32.781 31.434 33.039 31.4985 33.2925 31.4985C33.8115 31.4985 34.3155 31.23 34.593 30.7485C35.007 30.03 34.761 29.1135 34.044 28.6995ZM25.5 29.9985C23.019 29.9985 21 27.9795 21 25.4985C21 23.0175 23.019 20.9985 25.5 20.9985C27.981 20.9985 30 23.0175 30 25.4985C30 27.9795 27.981 29.9985 25.5 29.9985Z" fill="white"/>
</svg>
