<svg width="36" height="37" viewBox="0 0 36 37" fill="none" xmlns="http://www.w3.org/2000/svg">
<path d="M34.6815 14.0796L23.304 2.69375C21.8959 1.2889 19.9885 0.5 18 0.5C16.0115 0.5 14.1041 1.2889 12.696 2.69375L1.31852 14.0796C0.899155 14.4965 0.566672 14.9926 0.340341 15.539C0.114011 16.0855 -0.0016656 16.6715 1.81192e-05 17.263V31.9973C1.81192e-05 33.1915 0.474123 34.3368 1.31804 35.1812C2.16195 36.0256 3.30654 36.5 4.50001 36.5H31.5C32.6935 36.5 33.8381 36.0256 34.682 35.1812C35.5259 34.3368 36 33.1915 36 31.9973V17.263C36.0017 16.6715 35.886 16.0855 35.6597 15.539C35.4333 14.9926 35.1008 14.4965 34.6815 14.0796ZM22.5 33.4982H13.5V27.5937C13.5 26.3995 13.9741 25.2542 14.818 24.4098C15.6619 23.5654 16.8065 23.091 18 23.091C19.1935 23.091 20.3381 23.5654 21.182 24.4098C22.0259 25.2542 22.5 26.3995 22.5 27.5937V33.4982ZM33 31.9973C33 32.3954 32.8419 32.7771 32.5606 33.0586C32.2793 33.3401 31.8978 33.4982 31.5 33.4982H25.5V27.5937C25.5 25.6034 24.7098 23.6946 23.3033 22.2872C21.8968 20.8798 19.9891 20.0892 18 20.0892C16.0109 20.0892 14.1032 20.8798 12.6967 22.2872C11.2902 23.6946 10.5 25.6034 10.5 27.5937V33.4982H4.50001C4.10219 33.4982 3.72066 33.3401 3.43935 33.0586C3.15805 32.7771 3.00002 32.3954 3.00002 31.9973V17.263C3.00141 16.8652 3.1593 16.484 3.43951 16.2018L14.817 4.82053C15.6626 3.97842 16.807 3.50565 18 3.50565C19.193 3.50565 20.3374 3.97842 21.183 4.82053L32.5605 16.2063C32.8396 16.4874 32.9974 16.8668 33 17.263V31.9973Z" fill="white"/>
</svg>
