<svg width="36" height="36" viewBox="0 0 36 36" fill="none" xmlns="http://www.w3.org/2000/svg">
<path d="M11.2575 36C8.54209 35.9982 5.91897 35.0144 3.87215 33.2301C1.82532 31.4458 0.492921 28.9814 0.120811 26.2917C-0.251299 23.6019 0.361993 20.8683 1.84752 18.5953C3.33305 16.3223 5.59055 14.6633 8.20347 13.9245C10.1027 13.3806 12.1129 13.3557 14.025 13.8525L25.887 1.99347C26.5167 1.35939 27.266 0.856669 28.0916 0.514462C28.9171 0.172254 29.8023 -0.00262574 30.696 -3.26143e-05C32.1023 0.00115903 33.4507 0.560354 34.4451 1.55479C35.4396 2.54922 35.9988 3.89762 36 5.30397C36.0023 6.19765 35.8274 7.08293 35.4855 7.90863C35.1436 8.73432 34.6414 9.48405 34.008 10.1145L33 11.1225C32.4359 11.6826 31.6739 11.9979 30.879 12H28.5V13.5C28.5 14.2956 28.1839 15.0587 27.6213 15.6213C27.0587 16.1839 26.2956 16.5 25.5 16.5H24V18.879C24.001 19.2731 23.9239 19.6635 23.773 20.0276C23.6221 20.3916 23.4005 20.7222 23.121 21L22.146 21.975C22.6454 23.8861 22.6211 25.8965 22.0755 27.795C21.4615 29.958 20.2159 31.8885 18.4982 33.3393C16.7804 34.7901 14.6687 35.6951 12.4335 35.9385C12.0428 35.9791 11.6503 35.9996 11.2575 36ZM11.2575 16.5C9.72169 16.4985 8.21599 16.9257 6.90985 17.7335C5.60371 18.5414 4.54899 19.6978 3.86442 21.0725C3.17985 22.4473 2.89261 23.9859 3.03503 25.515C3.17745 27.0442 3.74387 28.5032 4.67054 29.7279C5.59722 30.9526 6.84734 31.8944 8.2802 32.4471C9.71306 32.9998 11.2718 33.1417 12.7808 32.8566C14.2899 32.5715 15.6895 31.8709 16.822 30.8335C17.9545 29.7962 18.7749 28.4633 19.191 26.985C19.659 25.3598 19.6065 23.6288 19.041 22.035C18.9487 21.7688 18.9332 21.482 18.9963 21.2074C19.0595 20.9328 19.1987 20.6816 19.398 20.4825L21 18.879V16.5C21 15.7043 21.316 14.9413 21.8786 14.3786C22.4413 13.816 23.2043 13.5 24 13.5H25.5V12C25.5 11.2043 25.816 10.4413 26.3786 9.87865C26.9413 9.31604 27.7043 8.99997 28.5 8.99997H30.879L31.887 7.99197C32.2409 7.6397 32.5215 7.22076 32.7125 6.75938C32.9036 6.298 33.0013 5.80333 33 5.30397C32.9996 4.69329 32.7569 4.10772 32.3252 3.67576C31.8936 3.24381 31.3081 3.00076 30.6975 2.99997C30.1978 2.99874 29.7028 3.09661 29.2411 3.28791C28.7795 3.47921 28.3603 3.76015 28.008 4.11447L15.5115 16.6095C15.312 16.8088 15.0605 16.9479 14.7856 17.0107C14.5107 17.0736 14.2237 17.0578 13.9575 16.965C13.0876 16.6587 12.1722 16.5015 11.25 16.5H11.2575ZM7.49997 27C7.49997 27.2966 7.58794 27.5867 7.75276 27.8333C7.91758 28.08 8.15185 28.2723 8.42594 28.3858C8.70003 28.4993 9.00163 28.529 9.2926 28.4711C9.58357 28.4133 9.85085 28.2704 10.0606 28.0606C10.2704 27.8509 10.4133 27.5836 10.4711 27.2926C10.529 27.0016 10.4993 26.7 10.3858 26.4259C10.2723 26.1519 10.08 25.9176 9.83332 25.7528C9.58665 25.5879 9.29664 25.5 8.99997 25.5C8.60214 25.5 8.22061 25.658 7.93931 25.9393C7.658 26.2206 7.49997 26.6021 7.49997 27Z" fill="white"/>
</svg>
