<svg width="25" height="25" viewBox="0 0 25 25" fill="none" xmlns="http://www.w3.org/2000/svg">
<path d="M17.7083 19.7917C17.7083 22.6667 15.375 25 12.5 25H5.20833C2.33333 25 0 22.6667 0 19.7917V12.5C0 9.62503 2.33333 7.2917 5.20833 7.2917H6.25C6.82292 7.2917 7.29167 7.76045 7.29167 8.33336C7.29167 8.90628 6.82292 9.37503 6.25 9.37503H5.20833C3.48958 9.37503 2.08333 10.7813 2.08333 12.5V19.7917C2.08333 21.5104 3.48958 22.9167 5.20833 22.9167H12.5C14.2187 22.9167 15.625 21.5104 15.625 19.7917C15.625 19.2188 16.0938 18.75 16.6667 18.75C17.2396 18.75 17.7083 19.2188 17.7083 19.7917ZM24.0937 6.13545L18.4583 0.31253C18.0625 -0.104137 17.3958 -0.114553 16.9896 0.291697C16.5833 0.697947 16.5625 1.3542 16.9688 1.76045L22.3229 7.28128H13.5417C10.6667 7.28128 8.33333 9.61461 8.33333 12.4896V17.6979C8.33333 18.2709 8.80208 18.7396 9.375 18.7396C9.94792 18.7396 10.4167 18.2709 10.4167 17.6979V12.4896C10.4167 10.7709 11.8229 9.36461 13.5417 9.36461H22.3125L16.9583 14.8854C16.5625 15.3021 16.5625 15.9584 16.9792 16.3542C17.1771 16.5521 17.4479 16.6459 17.7083 16.6459C17.9688 16.6459 18.25 16.5417 18.4583 16.3334L24.0833 10.5313C25.3021 9.31253 25.3021 7.33336 24.0937 6.12503V6.13545Z" fill="white"/>
</svg>
