<svg width="22" height="22" viewBox="0 0 22 22" fill="none" xmlns="http://www.w3.org/2000/svg">
<path d="M21.7314 20.4352L16.2598 14.9637C17.7509 13.14 18.484 10.8131 18.3075 8.46408C18.131 6.1151 17.0584 3.9238 15.3116 2.34346C13.5648 0.763118 11.2774 -0.0853655 8.92249 -0.0264864C6.56762 0.0323928 4.32546 0.99413 2.6598 2.6598C0.99413 4.32546 0.0323928 6.56762 -0.0264864 8.92249C-0.0853655 11.2774 0.763118 13.5648 2.34346 15.3116C3.9238 17.0584 6.11509 18.131 8.46408 18.3075C10.8131 18.484 13.14 17.7509 14.9636 16.2598L20.4352 21.7314C20.6081 21.8984 20.8397 21.9908 21.08 21.9887C21.3204 21.9866 21.5503 21.8902 21.7202 21.7202C21.8902 21.5503 21.9866 21.3204 21.9887 21.08C21.9908 20.8397 21.8984 20.6081 21.7314 20.4352ZM9.16665 16.5C7.71625 16.5 6.29843 16.0699 5.09247 15.2641C3.88651 14.4583 2.94658 13.313 2.39153 11.973C1.83649 10.633 1.69127 9.15851 1.97422 7.73599C2.25718 6.31346 2.95561 5.00678 3.9812 3.9812C5.00678 2.95562 6.31346 2.25718 7.73599 1.97422C9.15851 1.69127 10.633 1.83649 11.973 2.39153C13.313 2.94658 14.4583 3.88651 15.2641 5.09247C16.0699 6.29843 16.5 7.71625 16.5 9.16665C16.4978 11.1109 15.7245 12.9749 14.3497 14.3497C12.9749 15.7245 11.1109 16.4978 9.16665 16.5Z" fill="white"/>
</svg>
