<svg width="30" height="30" viewBox="0 0 30 30" fill="none" xmlns="http://www.w3.org/2000/svg">
<path d="M28.75 27.5002H25V7.50018C25 4.74268 22.7575 2.50018 20 2.50018H19.3313C19.0338 1.98643 18.6438 1.52268 18.17 1.13518C17.0075 0.182676 15.495 -0.196074 14.02 0.0989261L10.0238 0.897676C7.1125 1.48018 5 4.05768 5 7.02643V27.5002H1.25C0.56 27.5002 0 28.0589 0 28.7502C0 29.4414 0.56 30.0002 1.25 30.0002H28.75C29.44 30.0002 30 29.4414 30 28.7502C30 28.0589 29.44 27.5002 28.75 27.5002ZM20 5.00018C21.3788 5.00018 22.5 6.12143 22.5 7.50018V27.5002H20V5.00018ZM7.5 7.02643C7.5 5.24393 8.7675 3.69768 10.5138 3.34893L14.5088 2.55018C15.2463 2.40143 16.0025 2.59143 16.585 3.06893C17.1662 3.54518 17.4987 4.24893 17.4987 5.00143V27.5002H7.5V7.02643ZM15 15.6252C15 16.6602 14.16 17.5002 13.125 17.5002C12.09 17.5002 11.25 16.6602 11.25 15.6252C11.25 14.5902 12.09 13.7502 13.125 13.7502C14.16 13.7502 15 14.5902 15 15.6252Z" fill="white"/>
</svg>
